<svg width="22" height="22" viewBox="0 0 22 22" fill="none" xmlns="http://www.w3.org/2000/svg">
<path d="M1 18.5H0H1ZM6 13.5V12.5V13.5ZM16 13.5V12.5V13.5ZM2 18.5C2 17.4391 2.42143 16.4217 3.17157 15.6716L1.75736 14.2574C0.632141 15.3826 0 16.9087 0 18.5H2ZM3.17157 15.6716C3.92172 14.9214 4.93913 14.5 6 14.5V12.5C4.4087 12.5 2.88258 13.1321 1.75736 14.2574L3.17157 15.6716ZM6 14.5H16V12.5H6V14.5ZM16 14.5C17.0609 14.5 18.0783 14.9214 18.8284 15.6716L20.2426 14.2574C19.1174 13.1321 17.5913 12.5 16 12.5V14.5ZM18.8284 15.6716C19.5786 16.4217 20 17.4391 20 18.5H22C22 16.9087 21.3679 15.3826 20.2426 14.2574L18.8284 15.6716ZM20 18.5C20 18.8978 19.842 19.2794 19.5607 19.5607L20.9749 20.9749C21.6313 20.3185 22 19.4283 22 18.5H20ZM19.5607 19.5607C19.2794 19.842 18.8978 20 18.5 20V22C19.4283 22 20.3185 21.6313 20.9749 20.9749L19.5607 19.5607ZM18.5 20H3.5V22H18.5V20ZM3.5 20C3.10218 20 2.72064 19.842 2.43934 19.5607L1.02513 20.9749C1.6815 21.6313 2.57174 22 3.5 22V20ZM2.43934 19.5607C2.15804 19.2794 2 18.8978 2 18.5H0C0 19.4283 0.368749 20.3185 1.02513 20.9749L2.43934 19.5607ZM13.75 4.75C13.75 6.26878 12.5188 7.5 11 7.5V9.5C13.6234 9.5 15.75 7.37335 15.75 4.75H13.75ZM11 7.5C9.48122 7.5 8.25 6.26878 8.25 4.75H6.25C6.25 7.37335 8.37665 9.5 11 9.5V7.5ZM8.25 4.75C8.25 3.23122 9.48122 2 11 2V0C8.37665 0 6.25 2.12665 6.25 4.75H8.25ZM11 2C12.5188 2 13.75 3.23122 13.75 4.75H15.75C15.75 2.12665 13.6234 0 11 0V2Z" fill="white"/>
</svg>
