<svg width="28" height="28" viewBox="0 0 28 28" fill="none" xmlns="http://www.w3.org/2000/svg">
<path d="M3.11111 3.11111H12.4444C13.3 3.11111 14 2.41111 14 1.55556C14 0.7 13.3 0 12.4444 0H3.11111C1.4 0 0 1.4 0 3.11111V24.8889C0 26.6 1.4 28 3.11111 28H12.4444C13.3 28 14 27.3 14 26.4444C14 25.5889 13.3 24.8889 12.4444 24.8889H3.11111V3.11111Z" fill="#F4F4F4"/>
<path d="M27.4552 13.4556L23.1152 9.11562C23.007 9.00447 22.8682 8.92814 22.7163 8.89639C22.5645 8.86464 22.4067 8.87891 22.263 8.93737C22.1193 8.99584 21.9964 9.09584 21.9099 9.22459C21.8234 9.35333 21.7773 9.50496 21.7775 9.66006V12.4445H10.8886C10.033 12.4445 9.33301 13.1445 9.33301 14.0001C9.33301 14.8556 10.033 15.5556 10.8886 15.5556H21.7775V18.3401C21.7775 19.0401 22.6175 19.3823 23.0997 18.8845L27.4397 14.5445C27.7508 14.249 27.7508 13.7512 27.4552 13.4556Z" fill="#F4F4F4"/>
</svg>
