<svg width="267" height="97" viewBox="0 0 267 97" fill="none" xmlns="http://www.w3.org/2000/svg">
<path d="M67 2V22.4C67 23.7526 67.4039 25.0498 68.1228 26.0062C68.8416 26.9627 69.8167 27.5 70.8333 27.5H82.3333M82.3333 2V53M120.667 2V22.4C120.667 23.7526 121.071 25.0498 121.789 26.0062C122.508 26.9627 123.483 27.5 124.5 27.5H136M136 2V53M93.8333 7.1V47.9C93.8333 49.2526 94.2372 50.5498 94.9561 51.5062C95.675 52.4627 96.65 53 97.6667 53H105.333C106.35 53 107.325 52.4627 108.044 51.5062C108.763 50.5498 109.167 49.2526 109.167 47.9V7.1C109.167 5.7474 108.763 4.45019 108.044 3.49376C107.325 2.53732 106.35 2 105.333 2H97.6667C96.65 2 95.675 2.53732 94.9561 3.49376C94.2372 4.45019 93.8333 5.7474 93.8333 7.1Z" stroke="black" stroke-width="4" stroke-linecap="round" stroke-linejoin="round"/>
<path d="M42.5 20V52.5H2.5V3.5H25M42.5 20H25V3.5M42.5 20V15M25 3.5H30.5M13 15V21.5M16 38H28" stroke="black" stroke-width="4"/>
<rect x="31" y="6" width="4" height="4" fill="black"/>
<rect x="36" y="11" width="4" height="4" fill="black"/>
<rect x="28" y="40" width="4" height="4" fill="black"/>
<rect x="12" y="40" width="4" height="4" fill="black"/>
<path d="M2.792 89V65.992H21.992C22.696 65.992 23.336 66.1733 23.912 66.536C24.5093 66.8773 24.9787 67.336 25.32 67.912C25.6613 68.488 25.832 69.128 25.832 69.832V76.584C25.832 77.288 25.6613 77.928 25.32 78.504C24.9787 79.08 24.5093 79.5493 23.912 79.912C23.336 80.2533 22.696 80.424 21.992 80.424H5.384V89H2.792ZM6.632 77.8H21.992C22.3333 77.8 22.6213 77.6827 22.856 77.448C23.112 77.2133 23.24 76.9253 23.24 76.584V69.832C23.24 69.4907 23.112 69.2027 22.856 68.968C22.6213 68.712 22.3333 68.584 21.992 68.584H6.632C6.29067 68.584 5.992 68.712 5.736 68.968C5.50133 69.2027 5.384 69.4907 5.384 69.832V76.584C5.384 76.9253 5.50133 77.2133 5.736 77.448C5.992 77.6827 6.29067 77.8 6.632 77.8ZM31.8485 89C31.1445 89 30.4938 88.8293 29.8965 88.488C29.3205 88.1253 28.8512 87.656 28.4885 87.08C28.1472 86.4827 27.9765 85.832 27.9765 85.128V78.408H44.2325V74.312C44.2325 73.9707 44.1045 73.6827 43.8485 73.448C43.6138 73.192 43.3258 73.064 42.9845 73.064H27.9765V70.44H42.9845C43.7098 70.44 44.3605 70.6213 44.9365 70.984C45.5338 71.3253 46.0032 71.7947 46.3445 72.392C46.7072 72.968 46.8885 73.608 46.8885 74.312V89H31.8485ZM31.8485 86.376H44.2325V81.032H30.6005V85.128C30.6005 85.4693 30.7178 85.768 30.9525 86.024C31.2085 86.2587 31.5072 86.376 31.8485 86.376ZM53.2673 96.328V93.672H64.8513C65.1926 93.672 65.4806 93.544 65.7153 93.288C65.9713 93.0533 66.0993 92.7653 66.0993 92.424V89H53.7153C53.0113 89 52.3606 88.8293 51.7633 88.488C51.1873 88.1253 50.7179 87.656 50.3553 87.08C50.0139 86.4827 49.8433 85.832 49.8433 85.128V74.312C49.8433 73.608 50.0139 72.968 50.3553 72.392C50.7179 71.7947 51.1873 71.3253 51.7633 70.984C52.3606 70.6213 53.0113 70.44 53.7153 70.44H64.8513C65.5766 70.44 66.2273 70.6213 66.8033 70.984C67.4006 71.3253 67.8699 71.7947 68.2113 72.392C68.5526 72.968 68.7233 73.608 68.7233 74.312V92.424C68.7233 93.1493 68.5526 93.8 68.2113 94.376C67.8699 94.9733 67.4006 95.4427 66.8033 95.784C66.2273 96.1467 65.5766 96.328 64.8513 96.328H53.2673ZM53.7153 86.376H64.8513C65.1926 86.376 65.4806 86.2587 65.7153 86.024C65.9713 85.768 66.0993 85.4693 66.0993 85.128V74.312C66.0993 73.9707 65.9713 73.6827 65.7153 73.448C65.4806 73.192 65.1926 73.064 64.8513 73.064H53.7153C53.3739 73.064 53.0753 73.192 52.8193 73.448C52.5846 73.6827 52.4673 73.9707 52.4673 74.312V85.128C52.4673 85.4693 52.5846 85.768 52.8193 86.024C53.0753 86.2587 53.3739 86.376 53.7153 86.376ZM75.4103 89C74.7063 89 74.0556 88.8293 73.4583 88.488C72.8823 88.1253 72.4129 87.656 72.0503 87.08C71.7089 86.4827 71.5383 85.832 71.5383 85.128V74.312C71.5383 73.608 71.7089 72.968 72.0503 72.392C72.4129 71.7947 72.8823 71.3253 73.4583 70.984C74.0556 70.6213 74.7063 70.44 75.4103 70.44H86.5463C87.2716 70.44 87.9223 70.6213 88.4983 70.984C89.0956 71.3253 89.5649 71.7947 89.9062 72.392C90.2689 72.968 90.4503 73.608 90.4503 74.312V81.032H74.1623V85.128C74.1623 85.4693 74.2796 85.768 74.5143 86.024C74.7703 86.2587 75.0689 86.376 75.4103 86.376H90.4503V89H75.4103ZM74.1623 78.408H87.7943V74.312C87.7943 73.9707 87.6663 73.6827 87.4103 73.448C87.1756 73.192 86.8876 73.064 86.5463 73.064H75.4103C75.0689 73.064 74.7703 73.192 74.5143 73.448C74.2796 73.6827 74.1623 73.9707 74.1623 74.312V78.408ZM102.509 89V70.44H117.549C118.253 70.44 118.893 70.6213 119.469 70.984C120.067 71.3253 120.536 71.7947 120.877 72.392C121.24 72.968 121.421 73.608 121.421 74.312V89H118.797V74.312C118.797 73.9707 118.669 73.6827 118.413 73.448C118.179 73.192 117.891 73.064 117.549 73.064H106.413C106.072 73.064 105.773 73.192 105.517 73.448C105.261 73.6827 105.133 73.9707 105.133 74.312V89H102.509ZM128.098 89C127.394 89 126.743 88.8293 126.146 88.488C125.57 88.1253 125.1 87.656 124.738 87.08C124.396 86.4827 124.226 85.832 124.226 85.128V74.312C124.226 73.608 124.396 72.968 124.738 72.392C125.1 71.7947 125.57 71.3253 126.146 70.984C126.743 70.6213 127.394 70.44 128.098 70.44H139.234C139.959 70.44 140.61 70.6213 141.186 70.984C141.783 71.3253 142.252 71.7947 142.594 72.392C142.956 72.968 143.138 73.608 143.138 74.312V85.128C143.138 85.832 142.956 86.4827 142.594 87.08C142.252 87.656 141.783 88.1253 141.186 88.488C140.61 88.8293 139.959 89 139.234 89H128.098ZM128.098 86.376H139.234C139.575 86.376 139.863 86.2587 140.098 86.024C140.354 85.768 140.482 85.4693 140.482 85.128V74.312C140.482 73.9707 140.354 73.6827 140.098 73.448C139.863 73.192 139.575 73.064 139.234 73.064H128.098C127.756 73.064 127.458 73.192 127.202 73.448C126.967 73.6827 126.85 73.9707 126.85 74.312V85.128C126.85 85.4693 126.967 85.768 127.202 86.024C127.458 86.2587 127.756 86.376 128.098 86.376ZM149.568 89C148.843 89 148.181 88.8293 147.584 88.488C147.008 88.1253 146.549 87.656 146.208 87.08C145.867 86.4827 145.696 85.832 145.696 85.128V64.36H148.32V70.44H156.352V73.064H148.32V85.128C148.32 85.4693 148.437 85.768 148.672 86.024C148.928 86.2587 149.227 86.376 149.568 86.376H156.352V89H149.568ZM167.54 89V68.232C167.54 67.5067 167.71 66.856 168.052 66.28C168.393 65.6827 168.852 65.2133 169.428 64.872C170.025 64.5307 170.686 64.36 171.412 64.36H178.196V66.984H171.412C171.07 66.984 170.772 67.112 170.516 67.368C170.281 67.6027 170.164 67.8907 170.164 68.232V70.44H178.196V73.064H170.164V89H167.54ZM184.379 89C183.675 89 183.024 88.8293 182.427 88.488C181.851 88.1253 181.382 87.656 181.019 87.08C180.678 86.4827 180.507 85.832 180.507 85.128V74.312C180.507 73.608 180.678 72.968 181.019 72.392C181.382 71.7947 181.851 71.3253 182.427 70.984C183.024 70.6213 183.675 70.44 184.379 70.44H195.515C196.24 70.44 196.891 70.6213 197.467 70.984C198.064 71.3253 198.534 71.7947 198.875 72.392C199.238 72.968 199.419 73.608 199.419 74.312V85.128C199.419 85.832 199.238 86.4827 198.875 87.08C198.534 87.656 198.064 88.1253 197.467 88.488C196.891 88.8293 196.24 89 195.515 89H184.379ZM184.379 86.376H195.515C195.856 86.376 196.144 86.2587 196.379 86.024C196.635 85.768 196.763 85.4693 196.763 85.128V74.312C196.763 73.9707 196.635 73.6827 196.379 73.448C196.144 73.192 195.856 73.064 195.515 73.064H184.379C184.038 73.064 183.739 73.192 183.483 73.448C183.248 73.6827 183.131 73.9707 183.131 74.312V85.128C183.131 85.4693 183.248 85.768 183.483 86.024C183.739 86.2587 184.038 86.376 184.379 86.376ZM205.849 89C205.145 89 204.495 88.8293 203.897 88.488C203.321 88.1253 202.852 87.656 202.489 87.08C202.148 86.4827 201.977 85.832 201.977 85.128V70.44H204.601V85.128C204.601 85.4693 204.719 85.768 204.953 86.024C205.209 86.2587 205.508 86.376 205.849 86.376H216.985C217.327 86.376 217.625 86.2587 217.881 86.024C218.137 85.768 218.265 85.4693 218.265 85.128V70.44H220.889V85.128C220.889 85.832 220.708 86.4827 220.345 87.08C220.004 87.656 219.535 88.1253 218.937 88.488C218.361 88.8293 217.711 89 216.985 89H205.849ZM224.416 89V70.44H239.456C240.16 70.44 240.8 70.6213 241.376 70.984C241.973 71.3253 242.442 71.7947 242.784 72.392C243.146 72.968 243.328 73.608 243.328 74.312V89H240.704V74.312C240.704 73.9707 240.576 73.6827 240.319 73.448C240.085 73.192 239.797 73.064 239.456 73.064H228.32C227.978 73.064 227.68 73.192 227.424 73.448C227.168 73.6827 227.04 73.9707 227.04 74.312V89H224.416ZM249.609 89C248.883 89 248.222 88.8293 247.625 88.488C247.049 88.1253 246.579 87.656 246.217 87.08C245.875 86.4827 245.705 85.832 245.705 85.128V74.312C245.705 73.608 245.875 72.968 246.217 72.392C246.579 71.7947 247.049 71.3253 247.625 70.984C248.222 70.6213 248.883 70.44 249.609 70.44H261.993V64.36H264.617V89H249.609ZM249.609 86.376H260.745C261.086 86.376 261.374 86.2587 261.609 86.024C261.865 85.768 261.993 85.4693 261.993 85.128V74.312C261.993 73.9707 261.865 73.6827 261.609 73.448C261.374 73.192 261.086 73.064 260.745 73.064H249.609C249.267 73.064 248.969 73.192 248.713 73.448C248.478 73.6827 248.361 73.9707 248.361 74.312V85.128C248.361 85.4693 248.478 85.768 248.713 86.024C248.969 86.2587 249.267 86.376 249.609 86.376Z" fill="black"/>
</svg>
