<?xml version="1.0" encoding="UTF-8"?>
<svg id="Camada_2" data-name="Camada 2" xmlns="http://www.w3.org/2000/svg" viewBox="0 0 334.08 334.08">
  <defs>
    <style>
      .cls-1 {
        fill: #009640;
      }

      .cls-2 {
        fill: #fff;
      }
    </style>
  </defs>
  <g id="Camada_1-2" data-name="Camada 1">
    <rect class="cls-1" width="334.08" height="334.08" rx="50" ry="50" transform="translate(334.08 334.08) rotate(180)"/>
    <g>
      <path class="cls-2" d="m167.07,194.67c-6.85,0-12.41,5.56-12.41,12.41.65,16.46,24.16,16.45,24.81,0,0-6.85-5.56-12.41-12.41-12.41Zm0,16.33c-5.2-.16-5.19-7.7,0-7.86,5.19.16,5.19,7.7,0,7.86Z"/>
      <path class="cls-2" d="m167.07,238.94c-6.85,0-12.41,5.56-12.41,12.41.65,16.46,24.16,16.45,24.81,0,0-6.85-5.56-12.41-12.41-12.41Zm0,16.33c-5.2-.16-5.19-7.7,0-7.86,5.19.16,5.19,7.7,0,7.86Z"/>
      <path class="cls-2" d="m259.39,125.96c0,25.57-10.75,50.22-29.48,67.62-2.3,2.14-6.05.51-6.05-2.64v-64.98c0-6.23-1.01-12.35-2.98-18.17-3.96-11.86-12.05-22.28-22.49-29.2-.82-.53-1.77-1.13-2.62-1.63-2.74-1.63-5.76-3.03-8.66-4.14-.79-.29-1.58-.57-2.3-.81-7.09-2.33-14.43-3.2-21.84-2.68h-.07c-3.12.24-6.47.75-9.5,1.51-.79.19-1.59.4-2.34.63-.9.26-1.73.54-2.51.8-.4.13-.83.29-1.18.42l-.08.03c-1.73.63-3.45,1.38-5.04,2.16l-.08.03c-1.44.7-2.91,1.51-4.28,2.32-.02.01-.05.03-.07.04-.83.5-1.51.93-2.16,1.36-.47.32-1.59,1.07-2.14,1.5-.7.51-1.38,1.03-2.05,1.57-.65.51-1.19.98-1.79,1.5-.38.33-.72.64-1.1.99-.03.03-.07.06-.1.09-1.78,1.63-3.54,3.48-5.09,5.37-.91,1.07-1.75,2.17-2.56,3.31-.23.32-.45.63-.66.95-.11.15-.26.36-.41.6-1.4,2.11-2.57,4.11-3.69,6.41-.38.77-.76,1.55-1.08,2.34-.53,1.19-1.03,2.44-1.45,3.67-.12.34-.24.66-.35,1-.72,2.14-1.28,4.27-1.75,6.5v.05c-.09.41-.18.82-.25,1.24-.23,1.21-.4,2.46-.54,3.68-.1.79-.19,1.59-.19,2.4,0,0,0,69.31,0,69.31,0,3.14-3.74,4.78-6.05,2.64-18.85-17.42-29.67-42.13-29.67-67.8,5.06-122.46,179.57-122.45,184.63,0Z"/>
      <path class="cls-2" d="m213.9,111.47c-2.56-7.63-6.97-14.48-12.68-19.98-2.86-2.77-6.05-5.18-9.48-7.2-4.32-2.53-9.01-4.4-13.88-5.53-6.68-1.55-13.69-1.72-20.43-.48-.17.03-.36.06-.53.09-.13.03-.26.05-.38.08-.45.08-.9.18-1.34.29-.09.02-.19.04-.28.07-.09.02-.19.04-.29.07,0,0-.02,0-.01,0-1.51.37-3,.8-4.47,1.31-.01,0-.03,0-.03.01-1.41.48-2.79,1.05-4.14,1.65-.26.11-.51.23-.77.36-.07.03-.15.06-.21.1-.08.03-.15.07-.23.11-.07.03-.15.07-.23.11-.3.14-.6.3-.89.45-.81.41-1.61.86-2.39,1.32-1.48.86-2.92,1.81-4.3,2.82-1.2.87-2.36,1.81-3.49,2.79-.06.05-.12.1-.18.17-.12.1-.24.21-.36.32-.12.11-.24.21-.36.32h0s0,0-.01.01c0,0-.02,0-.02.02t0,0c-2.26,2.07-4.31,4.36-6.14,6.81-.21.28-.42.55-.61.83-.22.31-.44.62-.65.93-.1.14-.2.28-.28.42-.95,1.4-1.81,2.86-2.61,4.36-.24.44-.46.87-.67,1.32-.33.68-.67,1.38-.96,2.07-.46,1.06-.9,2.13-1.28,3.22-1.3,3.62-2.15,7.38-2.58,11.2-.01.05-.02.11-.02.17-.4,3.36-.33,6.8-.11,10.17,0,0,0,154.53,0,154.53,0,6.77,5.49,12.26,12.26,12.26,0,0,75.44,0,75.44,0,6.77,0,12.26-5.49,12.26-12.26V127.52c0-5.61-.92-11.01-2.63-16.05Zm-20,172.74h-54.72c-6.77,0-12.26-5.49-12.26-12.26v-132.16c-.17-2.92-.23-5.91.09-8.83,0-.05,0-.1.02-.15.34-3.3,1.01-6.55,2.04-9.7.3-.95.64-1.87,1.01-2.79.23-.6.5-1.21.76-1.79.17-.38.35-.76.53-1.14.63-1.29,1.31-2.56,2.07-3.78.06-.12.14-.24.22-.37.33-.52.65-1.03,1-1.53,1.44-2.11,3.07-4.09,4.87-5.9t0,0s.01-.02.02-.02c0,0,0-.01.01,0h0c.1-.1.19-.19.28-.29.1-.1.19-.19.29-.28.05-.06.1-.1.14-.15.89-.85,1.81-1.66,2.76-2.42,1.09-.87,2.23-1.7,3.41-2.44.62-.4,1.25-.78,1.9-1.14.23-.13.47-.27.71-.39.06-.03.12-.06.18-.09.06-.03.12-.06.18-.09.05-.03.11-.06.17-.09.2-.11.4-.21.61-.31,1.07-.52,2.17-1.01,3.29-1.43,0,0,.02-.01.03-.01,1.16-.44,2.34-.82,3.54-1.13,0,0,0,0,.01,0,.07-.02.15-.04.23-.06.07-.02.15-.04.22-.06.35-.09.71-.18,1.06-.25.1-.03.2-.05.3-.07.14-.03.28-.06.42-.08,5.33-1.08,10.92-.92,16.2.41,3.9,1,7.62,2.62,11.01,4.79,2.75,1.76,5.27,3.86,7.52,6.24,7.83,8.21,12.17,19.61,12.14,31.2,0,0,0,136.3,0,136.3,0,6.77-5.49,12.26-12.26,12.26Z"/>
    </g>
  </g>
</svg>