<svg width="33" height="34" viewBox="0 0 33 34" fill="none" xmlns="http://www.w3.org/2000/svg">
<path d="M16.0683 10.7666C14.8355 10.7666 13.6303 11.1322 12.6052 11.8171C11.5802 12.502 10.7812 13.4755 10.3094 14.6145C9.83766 15.7535 9.71422 17.0068 9.95474 18.216C10.1952 19.4251 10.7889 20.5358 11.6607 21.4076C12.5324 22.2793 13.6431 22.873 14.8522 23.1135C16.0614 23.354 17.3147 23.2306 18.4537 22.7588C19.5927 22.287 20.5662 21.4881 21.2511 20.463C21.936 19.4379 22.3016 18.2328 22.3016 16.9999C22.2998 15.3473 21.6424 13.7629 20.4739 12.5944C19.3053 11.4258 17.7209 10.7685 16.0683 10.7666ZM16.0683 20.9666C15.2838 20.9666 14.5168 20.734 13.8645 20.2981C13.2122 19.8622 12.7038 19.2427 12.4036 18.5179C12.1033 17.7931 12.0248 16.9955 12.1778 16.2261C12.3309 15.4566 12.7087 14.7498 13.2634 14.1951C13.8182 13.6403 14.525 13.2625 15.2944 13.1095C16.0639 12.9564 16.8615 13.035 17.5863 13.3352C18.3111 13.6354 18.9306 14.1439 19.3665 14.7962C19.8023 15.4485 20.035 16.2154 20.035 16.9999C20.0338 18.0516 19.6155 19.0598 18.8718 19.8035C18.1282 20.5471 17.12 20.9654 16.0683 20.9666Z" fill="#F4F4F4"/>
<path d="M31.6197 21.6976L29.3694 19.8451C29.7683 17.9693 29.7683 16.0307 29.3694 14.1549L31.6197 12.3024C31.8793 12.0898 32.0546 11.7916 32.1144 11.4615C32.1742 11.1313 32.1145 10.7906 31.946 10.5005L29.636 6.4996C29.469 6.20849 29.2038 5.98638 28.8879 5.87306C28.572 5.75975 28.2261 5.76264 27.9121 5.88122L25.1807 6.90455C23.7578 5.61898 22.0792 4.64879 20.2549 4.05762L19.7757 1.18384C19.7214 0.852649 19.551 0.551606 19.2949 0.334671C19.0389 0.117736 18.7139 -0.000907854 18.3783 5.23128e-06H13.7584C13.4228 -0.000896234 13.0979 0.117743 12.8418 0.334661C12.5857 0.551579 12.4153 0.852598 12.361 1.18377L11.882 4.05762C10.0578 4.64877 8.37916 5.61897 6.95628 6.90455L4.22459 5.88108C3.91066 5.76258 3.56478 5.75973 3.24894 5.87306C2.93309 5.98638 2.66792 6.20847 2.50094 6.49953L0.190992 10.5007C0.0225226 10.7909 -0.0371379 11.1315 0.0226954 11.4617C0.0825286 11.7919 0.257947 12.0899 0.517533 12.3025L2.76769 14.1549C2.36876 16.0307 2.36876 17.9693 2.76769 19.8451L0.517321 21.6976C0.257776 21.9102 0.0824054 22.2083 0.0226123 22.5385C-0.0371809 22.8687 0.0225083 23.2094 0.190992 23.4995L2.50101 27.5004C2.66801 27.7915 2.93322 28.0136 3.24911 28.1269C3.565 28.2402 3.91092 28.2373 4.22488 28.1188L6.95635 27.0954C8.37923 28.381 10.0579 29.3512 11.8821 29.9424L12.3611 32.8162C12.4153 33.1473 12.5858 33.4484 12.8418 33.6653C13.0979 33.8822 13.4228 34.0009 13.7584 34H18.3783C18.7139 34.0009 19.0388 33.8823 19.2949 33.6654C19.551 33.4484 19.7214 33.1474 19.7757 32.8162L20.2547 29.9424C22.079 29.3512 23.7576 28.381 25.1805 27.0954L27.9121 28.1189C28.226 28.2374 28.5719 28.2402 28.8878 28.1269C29.2036 28.0136 29.4688 27.7915 29.6358 27.5005L31.9456 23.4993C32.1141 23.2092 32.1738 22.8686 32.1141 22.5385C32.0544 22.2084 31.8792 21.9103 31.6197 21.6976ZM28.033 25.7436L24.6253 24.4669L24.1093 24.9864C22.6895 26.4174 20.9137 27.4437 18.965 27.9595L18.2567 28.1462L17.6585 31.7333H14.4788L13.8808 28.1462L13.1725 27.9595C11.2238 27.4437 9.44795 26.4174 8.0282 24.9864L7.51218 24.4669L4.10389 25.7436L2.51432 22.9898L5.32138 20.6789L5.13013 19.9725C4.60417 18.0257 4.60417 15.9743 5.13013 14.0275L5.32138 13.3211L2.51432 11.0103L4.10425 8.25641L7.51197 9.53311L8.02799 9.01362C9.44773 7.58261 11.2236 6.55629 13.1723 6.04053L13.8806 5.85381L14.4785 2.26667H17.6585L18.2565 5.85381L18.9648 6.04053C20.9135 6.55629 22.6893 7.58261 24.1091 9.01362L24.6251 9.53311L28.0328 8.25641L29.6228 11.0102L26.8157 13.3211L27.007 14.0275C27.5329 15.9743 27.5329 18.0257 27.007 19.9725L26.8157 20.6789L29.6228 22.9897L28.033 25.7436Z" fill="#F4F4F4"/>
</svg>
