<svg width="37" height="28" viewBox="0 0 37 28" fill="none" xmlns="http://www.w3.org/2000/svg">
<path d="M33.5312 2.33333C33.8379 2.33333 34.132 2.45625 34.3488 2.67504C34.5657 2.89383 34.6875 3.19058 34.6875 3.5V24.5C34.6875 24.8094 34.5657 25.1062 34.3488 25.325C34.132 25.5438 33.8379 25.6667 33.5312 25.6667H3.46875C3.16209 25.6667 2.868 25.5438 2.65116 25.325C2.43432 25.1062 2.3125 24.8094 2.3125 24.5V3.5C2.3125 3.19058 2.43432 2.89383 2.65116 2.67504C2.868 2.45625 3.16209 2.33333 3.46875 2.33333H33.5312ZM3.46875 0C2.54878 0 1.66649 0.368749 1.01597 1.02513C0.365457 1.6815 0 2.57174 0 3.5L0 24.5C0 25.4283 0.365457 26.3185 1.01597 26.9749C1.66649 27.6313 2.54878 28 3.46875 28H33.5312C34.4512 28 35.3335 27.6313 35.984 26.9749C36.6345 26.3185 37 25.4283 37 24.5V3.5C37 2.57174 36.6345 1.6815 35.984 1.02513C35.3335 0.368749 34.4512 0 33.5312 0H3.46875Z" fill="#F4F4F4"/>
<path d="M11.5625 14C11.5625 13.6906 11.6843 13.3938 11.9012 13.175C12.118 12.9562 12.4121 12.8333 12.7188 12.8333H28.9063C29.2129 12.8333 29.507 12.9562 29.7238 13.175C29.9407 13.3938 30.0625 13.6906 30.0625 14C30.0625 14.3094 29.9407 14.6062 29.7238 14.825C29.507 15.0438 29.2129 15.1667 28.9063 15.1667H12.7188C12.4121 15.1667 12.118 15.0438 11.9012 14.825C11.6843 14.6062 11.5625 14.3094 11.5625 14ZM11.5625 8.16667C11.5625 7.85725 11.6843 7.5605 11.9012 7.34171C12.118 7.12292 12.4121 7 12.7188 7H28.9063C29.2129 7 29.507 7.12292 29.7238 7.34171C29.9407 7.5605 30.0625 7.85725 30.0625 8.16667C30.0625 8.47609 29.9407 8.77283 29.7238 8.99162C29.507 9.21042 29.2129 9.33333 28.9063 9.33333H12.7188C12.4121 9.33333 12.118 9.21042 11.9012 8.99162C11.6843 8.77283 11.5625 8.47609 11.5625 8.16667ZM11.5625 19.8333C11.5625 19.5239 11.6843 19.2272 11.9012 19.0084C12.118 18.7896 12.4121 18.6667 12.7188 18.6667H28.9063C29.2129 18.6667 29.507 18.7896 29.7238 19.0084C29.9407 19.2272 30.0625 19.5239 30.0625 19.8333C30.0625 20.1428 29.9407 20.4395 29.7238 20.6583C29.507 20.8771 29.2129 21 28.9063 21H12.7188C12.4121 21 12.118 20.8771 11.9012 20.6583C11.6843 20.4395 11.5625 20.1428 11.5625 19.8333ZM9.25 8.16667C9.25 8.47609 9.12818 8.77283 8.91134 8.99162C8.6945 9.21042 8.40041 9.33333 8.09375 9.33333C7.78709 9.33333 7.493 9.21042 7.27616 8.99162C7.05932 8.77283 6.9375 8.47609 6.9375 8.16667C6.9375 7.85725 7.05932 7.5605 7.27616 7.34171C7.493 7.12292 7.78709 7 8.09375 7C8.40041 7 8.6945 7.12292 8.91134 7.34171C9.12818 7.5605 9.25 7.85725 9.25 8.16667ZM9.25 14C9.25 14.3094 9.12818 14.6062 8.91134 14.825C8.6945 15.0438 8.40041 15.1667 8.09375 15.1667C7.78709 15.1667 7.493 15.0438 7.27616 14.825C7.05932 14.6062 6.9375 14.3094 6.9375 14C6.9375 13.6906 7.05932 13.3938 7.27616 13.175C7.493 12.9562 7.78709 12.8333 8.09375 12.8333C8.40041 12.8333 8.6945 12.9562 8.91134 13.175C9.12818 13.3938 9.25 13.6906 9.25 14ZM9.25 19.8333C9.25 20.1428 9.12818 20.4395 8.91134 20.6583C8.6945 20.8771 8.40041 21 8.09375 21C7.78709 21 7.493 20.8771 7.27616 20.6583C7.05932 20.4395 6.9375 20.1428 6.9375 19.8333C6.9375 19.5239 7.05932 19.2272 7.27616 19.0084C7.493 18.7896 7.78709 18.6667 8.09375 18.6667C8.40041 18.6667 8.6945 18.7896 8.91134 19.0084C9.12818 19.2272 9.25 19.5239 9.25 19.8333Z" fill="#F4F4F4"/>
</svg>
