<svg width="36" height="34" viewBox="0 0 36 34" fill="none" xmlns="http://www.w3.org/2000/svg">
<path d="M35.2528 16.7271L19.9097 1.39186L18.8813 0.363427C18.6469 0.130646 18.3301 0 17.9998 0C17.6695 0 17.3526 0.130646 17.1182 0.363427L0.746673 16.7271C0.506564 16.9662 0.316801 17.2511 0.188587 17.5648C0.0603727 17.8785 -0.00369533 18.2147 0.000164588 18.5536C0.0160478 19.9513 1.17949 21.0671 2.57721 21.0671H4.26479V34H31.7347V21.0671H33.458C34.1371 21.0671 34.7764 20.8011 35.2568 20.3206C35.4934 20.0848 35.6808 19.8044 35.8083 19.4956C35.9358 19.1869 36.0007 18.8559 35.9994 18.5219C35.9994 17.8468 35.7333 17.2075 35.2528 16.7271ZM20.2234 31.141H15.7761V23.0406H20.2234V31.141ZM28.8758 18.2082V31.141H22.7647V22.0876C22.7647 21.2101 22.0539 20.4993 21.1764 20.4993H14.8231C13.9456 20.4993 13.2348 21.2101 13.2348 22.0876V31.141H7.12376V18.2082H3.3118L18.0037 3.52815L18.921 4.4454L32.6917 18.2082H28.8758Z" fill="#F4F4F4"/>
</svg>
