<svg width="51" height="59" viewBox="0 0 51 59" fill="none" xmlns="http://www.w3.org/2000/svg">
<path d="M39.2 5.9H44.8C46.2852 5.9 47.7096 6.52161 48.7598 7.62807C49.81 8.73453 50.4 10.2352 50.4 11.8V53.1C50.4 54.6648 49.81 56.1655 48.7598 57.2719C47.7096 58.3784 46.2852 59 44.8 59H5.6C4.11479 59 2.69041 58.3784 1.6402 57.2719C0.589998 56.1655 0 54.6648 0 53.1V11.8C0 8.555 2.52 5.9 5.6 5.9H11.2V0H16.8V5.9H33.6V0H39.2V5.9ZM5.6 17.7V53.1H44.8V17.7H5.6ZM22.4 32.45V26.55H28V32.45H33.6V38.35H28V44.25H22.4V38.35H16.8V32.45H22.4Z" fill="#F4F4F4"/>
</svg>
